<svg xmlns="http://www.w3.org/2000/svg" viewBox="0 0 100 100">
  <rect width="100" height="100" rx="20" fill="#00833F"/>
  <path d="M50 20C40 20 30 25 25 35C20 45 22 60 30 70C35 75 42 80 50 80C58 80 65 75 70 70C78 60 80 45 75 35C70 25 60 20 50 20ZM50 72C45 72 40 68 36 64C30 57 28 47 32 39C35 32 42 28 50 28C58 28 65 32 68 39C72 47 70 57 64 64C60 68 55 72 50 72Z" fill="white"/>
  <path d="M45 45C45 42 47 40 50 40C53 40 55 42 55 45C55 48 53 50 50 50C47 50 45 48 45 45Z" fill="white" opacity="0.5"/>
</svg>
